<?xml version="1.0" encoding="UTF-8" standalone="no"?>
<!DOCTYPE svg PUBLIC "-//W3C//DTD SVG 1.1//EN" "http://www.w3.org/Graphics/SVG/1.1/DTD/svg11.dtd">
<svg width="100%" height="100%" viewBox="0 0 515 179" version="1.1" xmlns="http://www.w3.org/2000/svg" xmlns:xlink="http://www.w3.org/1999/xlink" xml:space="preserve" xmlns:serif="http://www.serif.com/" style="fill-rule:evenodd;clip-rule:evenodd;stroke-linecap:round;stroke-linejoin:round;stroke-miterlimit:1.5;">
    <g transform="matrix(1,0,0,1,-382.818,-147.416)">
        <g transform="matrix(0.931499,0,0,0.639773,36.1869,53.2834)">
            <rect x="372.658" y="147.916" width="551.117" height="104.578" style="fill:rgb(235,235,235);stroke:black;stroke-width:1.25px;"/>
        </g>
        <g transform="matrix(0.931499,0,0,0.428546,36.1869,162.169)">
            <rect x="372.658" y="147.916" width="551.117" height="104.578" style="fill:rgb(235,235,235);stroke:black;stroke-width:1.38px;"/>
        </g>
        <g transform="matrix(0.24968,0,0,0.428546,290.273,217.142)">
            <rect x="372.658" y="147.916" width="551.117" height="104.578" style="fill:rgb(235,235,235);stroke:black;stroke-width:2.85px;"/>
        </g>
        <g transform="matrix(0.24968,0,0,0.428546,438.579,217.142)">
            <rect x="372.658" y="147.916" width="551.117" height="104.578" style="fill:rgb(235,235,235);stroke:black;stroke-width:2.85px;"/>
        </g>
        <g transform="matrix(1,0,0,1,43.5237,7.32811)">
            <text x="513.557px" y="302.652px" style="font-family:'Arial-BoldMT', 'Arial', sans-serif;font-weight:700;font-size:20px;">W<tspan x="532.258px 537.814px " y="302.652px 302.652px ">in</tspan>dows</text>
        </g>
        <g transform="matrix(0.24968,0,0,0.428546,586.364,217.142)">
            <rect x="372.658" y="147.916" width="551.117" height="104.578" style="fill:rgb(235,235,235);stroke:black;stroke-width:2.85px;"/>
        </g>
        <g transform="matrix(1,0,0,1,5.00879,0)">
            <g transform="matrix(0.129573,0,0,0.428546,771.999,217.142)">
                <rect x="372.658" y="147.916" width="551.117" height="104.578" style="fill:rgb(235,235,235);stroke:black;stroke-width:3.16px;"/>
            </g>
            <g transform="matrix(1,0,0,1,0,-0.993243)">
                <text x="847.626px" y="305.305px" style="font-family:'Arial-BoldMT', 'Arial', sans-serif;font-weight:700;font-size:20px;">...</text>
            </g>
        </g>
        <g transform="matrix(1,0,0,1,-33.5505,53.1253)">
            <text x="632.676px" y="201.882px" style="font-family:'Arial-BoldMT', 'Arial', sans-serif;font-weight:700;font-size:20px;">Browser</text>
        </g>
        <g transform="matrix(1,0,0,1,-32.3777,-20.8131)">
            <text x="632.686px" y="201.882px" style="font-family:'Arial-BoldMT', 'Arial', sans-serif;font-weight:700;font-size:20px;">W<tspan x="651.202px 662.325px 674.542px 679.356px 693.8px " y="201.882px 201.882px 201.882px 201.882px 201.882px ">eb AP</tspan>I</text>
            <text x="614.326px" y="214.274px" style="font-family:'ArialMT', 'Arial', sans-serif;font-size:12px;">e.g. navigator<tspan x="686.379px 689.713px " y="214.274px 214.274px ">.s</tspan>hare();</text>
        </g>
        <g transform="matrix(1,0,0,1,35.6318,5.84804)">
            <text x="378.797px" y="304.132px" style="font-family:'Arial-BoldMT', 'Arial', sans-serif;font-weight:700;font-size:20px;">Android</text>
        </g>
        <g transform="matrix(1,0,0,1,22.7973,3.64498)">
            <text x="691.292px" y="306.448px" style="font-family:'Arial-BoldMT', 'Arial', sans-serif;font-weight:700;font-size:20px;">MacOS</text>
        </g>
    </g>
</svg>
