<?xml version="1.0" encoding="UTF-8" standalone="no"?>
<!DOCTYPE svg PUBLIC "-//W3C//DTD SVG 1.1//EN" "http://www.w3.org/Graphics/SVG/1.1/DTD/svg11.dtd">
<svg width="100%" height="100%" viewBox="0 0 1290 300" version="1.1" xmlns="http://www.w3.org/2000/svg" xmlns:xlink="http://www.w3.org/1999/xlink" xml:space="preserve" xmlns:serif="http://www.serif.com/" style="fill-rule:evenodd;clip-rule:evenodd;stroke-linejoin:round;stroke-miterlimit:2;">
    <g transform="matrix(2.52392,0,0,2.52392,116.707,-45.9621)">
        <path d="M160.982,59.622c0.768,-0.168 1.708,-0.295 2.818,-0.38c1.11,-0.084 2.093,-0.127 2.947,-0.127c1.109,0 2.23,0.043 3.362,0.127c1.13,0.085 2.037,0.212 2.721,0.38l-7.941,15.191l8.838,17.406c-0.769,0.169 -1.73,0.295 -2.882,0.38c-1.152,0.085 -2.157,0.127 -3.01,0.127c-1.111,0 -2.21,-0.042 -3.299,-0.127c-1.087,-0.085 -1.953,-0.211 -2.593,-0.38l-8.518,-16.963l7.557,-15.634Zm-19.405,0c0.94,-0.211 1.868,-0.359 2.785,-0.444c0.917,-0.084 1.804,-0.126 2.658,-0.126c0.81,0 1.688,0.042 2.626,0.126c0.939,0.085 1.857,0.233 2.755,0.444l0,32.597c-1.112,0.212 -2.113,0.348 -3.011,0.413c-0.897,0.062 -1.688,0.094 -2.37,0.094c-0.726,0 -1.538,-0.032 -2.432,-0.094c-0.898,-0.065 -1.901,-0.201 -3.011,-0.413l0,-32.597Z" style="fill:#084361;fill-rule:nonzero;"/>
    </g>
    <g transform="matrix(2.52392,0,0,2.52392,116.707,-45.9621)">
        <path d="M191.724,85.193c0.384,0 0.938,-0.042 1.664,-0.127c0.726,-0.083 1.259,-0.168 1.601,-0.253l0,-6.962l-3.65,0c-1.496,0 -2.753,0.317 -3.779,0.949c-1.024,0.633 -1.536,1.52 -1.536,2.66c0,0.843 0.191,1.508 0.575,1.994c0.386,0.485 0.866,0.853 1.443,1.106c0.575,0.253 1.194,0.423 1.857,0.506c0.661,0.085 1.268,0.127 1.825,0.127Zm-15.114,-3.544c0,-2.066 0.447,-3.775 1.343,-5.127c0.898,-1.35 2.05,-2.427 3.459,-3.228c1.41,-0.802 2.967,-1.361 4.675,-1.678c1.708,-0.317 3.372,-0.474 4.996,-0.474l3.906,0c-0.042,-0.76 -0.256,-1.393 -0.64,-1.899c-0.384,-0.507 -0.875,-0.896 -1.473,-1.172c-0.598,-0.273 -1.259,-0.463 -1.985,-0.569c-0.726,-0.105 -1.474,-0.159 -2.242,-0.159c-1.024,0 -2.22,0.118 -3.586,0.349c-1.366,0.231 -2.776,0.602 -4.227,1.107c-0.384,-0.716 -0.716,-1.371 -0.993,-1.961c-0.278,-0.591 -0.491,-1.193 -0.64,-1.804c-0.151,-0.612 -0.256,-1.244 -0.321,-1.901c-0.064,-0.653 -0.096,-1.401 -0.096,-2.246c2.05,-0.674 4.089,-1.18 6.116,-1.518c2.028,-0.338 3.854,-0.508 5.476,-0.508c2.221,0 4.227,0.265 6.021,0.792c1.792,0.528 3.319,1.341 4.579,2.437c1.258,1.098 2.231,2.5 2.913,4.208c0.684,1.71 1.026,3.747 1.026,6.109l0,18.548c-1.624,0.464 -3.586,0.927 -5.893,1.391c-2.306,0.465 -4.738,0.698 -7.3,0.698c-2.221,0 -4.259,-0.203 -6.117,-0.603c-1.857,-0.4 -3.448,-1.045 -4.771,-1.931c-1.324,-0.885 -2.359,-2.056 -3.107,-3.511c-0.747,-1.456 -1.119,-3.24 -1.119,-5.35Z" style="fill:#084361;fill-rule:nonzero;"/>
    </g>
    <g transform="matrix(2.52392,0,0,2.52392,116.707,-45.9621)">
        <path d="M212.73,59.748c2.006,-0.253 4.087,-0.463 6.245,-0.633c2.155,-0.168 4.196,-0.254 6.116,-0.254c5.167,0 9.04,0.962 11.625,2.881c2.581,1.921 3.875,4.611 3.875,8.07c0,1.309 -0.152,2.447 -0.449,3.418c-0.3,0.971 -0.663,1.804 -1.089,2.501c-0.429,0.695 -0.875,1.256 -1.346,1.677c-0.47,0.423 -0.853,0.76 -1.152,1.013l7.301,13.798c-0.854,0.169 -1.803,0.295 -2.851,0.38c-1.045,0.085 -2.06,0.127 -3.042,0.127c-1.195,0 -2.348,-0.042 -3.458,-0.127c-1.11,-0.085 -2.027,-0.211 -2.753,-0.38l-7.11,-14.938l0.898,-0.506c1.494,-0.844 2.518,-1.741 3.074,-2.69c0.554,-0.95 0.831,-1.972 0.831,-3.07c0,-1.096 -0.331,-1.994 -0.991,-2.691c-0.663,-0.695 -1.72,-1.044 -3.17,-1.044c-0.812,0 -1.431,0.043 -1.857,0.127l0,24.875c-1.113,0.212 -2.114,0.35 -3.012,0.412c-0.895,0.064 -1.687,0.096 -2.369,0.096c-0.727,0 -1.516,-0.032 -2.369,-0.096c-0.855,-0.062 -1.837,-0.2 -2.947,-0.412l0,-32.534Z" style="fill:#084361;fill-rule:nonzero;"/>
    </g>
    <g transform="matrix(2.52392,0,0,2.52392,116.707,-45.9621)">
        <path d="M261.98,85.193c0.385,0 0.939,-0.042 1.666,-0.127c0.725,-0.083 1.258,-0.168 1.601,-0.253l0,-6.962l-3.65,0c-1.496,0 -2.753,0.317 -3.781,0.949c-1.022,0.633 -1.535,1.52 -1.535,2.66c0,0.843 0.191,1.508 0.574,1.994c0.387,0.485 0.867,0.853 1.444,1.106c0.575,0.253 1.194,0.423 1.857,0.506c0.66,0.085 1.268,0.127 1.824,0.127Zm-15.113,-3.544c0,-2.066 0.447,-3.775 1.344,-5.127c0.897,-1.35 2.05,-2.427 3.458,-3.228c1.41,-0.802 2.968,-1.361 4.676,-1.678c1.708,-0.317 3.372,-0.474 4.996,-0.474l3.906,0c-0.042,-0.76 -0.257,-1.393 -0.641,-1.899c-0.383,-0.507 -0.875,-0.896 -1.472,-1.172c-0.599,-0.273 -1.26,-0.463 -1.986,-0.569c-0.726,-0.105 -1.474,-0.159 -2.241,-0.159c-1.024,0 -2.22,0.118 -3.587,0.349c-1.366,0.231 -2.776,0.602 -4.226,1.107c-0.384,-0.716 -0.717,-1.371 -0.993,-1.961c-0.278,-0.591 -0.492,-1.193 -0.641,-1.804c-0.15,-0.612 -0.256,-1.244 -0.32,-1.901c-0.064,-0.653 -0.096,-1.401 -0.096,-2.246c2.05,-0.674 4.089,-1.18 6.116,-1.518c2.027,-0.338 3.854,-0.508 5.475,-0.508c2.221,0 4.227,0.265 6.022,0.792c1.792,0.528 3.319,1.341 4.578,2.437c1.259,1.098 2.232,2.5 2.913,4.208c0.685,1.71 1.027,3.747 1.027,6.109l0,18.548c-1.624,0.464 -3.586,0.927 -5.893,1.391c-2.306,0.465 -4.738,0.698 -7.302,0.698c-2.22,0 -4.258,-0.203 -6.115,-0.603c-1.857,-0.4 -3.449,-1.045 -4.771,-1.931c-1.324,-0.885 -2.36,-2.056 -3.107,-3.511c-0.747,-1.456 -1.12,-3.24 -1.12,-5.35Z" style="fill:#084361;fill-rule:nonzero;"/>
    </g>
    <g transform="matrix(2.52392,0,0,2.52392,116.707,-45.9621)">
        <path d="M302.394,59.622c0.767,-0.168 1.708,-0.295 2.818,-0.38c1.109,-0.084 2.092,-0.127 2.946,-0.127c1.11,0 2.23,0.043 3.363,0.127c1.129,0.085 2.037,0.212 2.72,0.38l-7.94,15.191l8.837,17.406c-0.768,0.169 -1.73,0.295 -2.881,0.38c-1.153,0.085 -2.157,0.127 -3.01,0.127c-1.112,0 -2.211,-0.042 -3.3,-0.127c-1.087,-0.085 -1.953,-0.211 -2.593,-0.38l-8.518,-16.963l7.558,-15.634Zm-19.406,0c0.938,-0.211 1.866,-0.359 2.785,-0.444c0.917,-0.084 1.804,-0.126 2.659,-0.126c0.809,0 1.687,0.042 2.625,0.126c0.94,0.085 1.857,0.233 2.756,0.444l0,32.597c-1.113,0.212 -2.114,0.348 -3.012,0.413c-0.897,0.062 -1.688,0.094 -2.369,0.094c-0.727,0 -1.536,-0.032 -2.435,-0.094c-0.895,-0.065 -1.899,-0.201 -3.009,-0.413l0,-32.597Z" style="fill:#084361;fill-rule:nonzero;"/>
    </g>
    <g transform="matrix(2.52392,0,0,2.52392,116.707,-45.9621)">
        <path d="M349.017,90.828c-0.726,0.253 -1.591,0.506 -2.595,0.76c-1.003,0.252 -2.071,0.496 -3.202,0.726c-1.131,0.233 -2.295,0.412 -3.49,0.538c-1.195,0.127 -2.369,0.192 -3.523,0.192c-2.176,0 -4.27,-0.171 -6.276,-0.507c-2.006,-0.338 -3.768,-1.024 -5.284,-2.059c-1.515,-1.032 -2.72,-2.532 -3.619,-4.494c-0.895,-1.962 -1.344,-4.588 -1.344,-7.88l0,-18.482c0.939,-0.211 1.868,-0.359 2.786,-0.444c0.919,-0.084 1.803,-0.126 2.659,-0.126c0.81,0 1.685,0.042 2.625,0.126c0.938,0.085 1.857,0.233 2.754,0.444l0,17.596c0,2.533 0.426,4.263 1.28,5.19c0.854,0.929 2.157,1.393 3.907,1.393c0.727,0 1.281,-0.021 1.666,-0.064c0.384,-0.042 0.661,-0.083 0.831,-0.127l0,-23.988c0.941,-0.211 1.87,-0.359 2.787,-0.444c0.918,-0.084 1.803,-0.126 2.658,-0.126c0.811,0 1.686,0.042 2.627,0.126c0.938,0.085 1.857,0.233 2.753,0.444l0,31.206Z" style="fill:#084361;fill-rule:nonzero;"/>
    </g>
    <g transform="matrix(2.52392,0,0,2.52392,116.707,-45.9621)">
        <path d="M370.599,58.989c1.878,0 3.756,0.157 5.636,0.474c1.878,0.317 3.576,0.981 5.09,1.994c1.516,1.013 2.756,2.468 3.715,4.368c0.961,1.899 1.44,4.409 1.44,7.532l0,18.925c-1.11,0.212 -2.113,0.35 -3.008,0.412c-0.897,0.064 -1.688,0.096 -2.37,0.096c-0.726,0 -1.539,-0.032 -2.434,-0.096c-0.897,-0.062 -1.899,-0.2 -3.01,-0.412l0,-17.785c0,-2.238 -0.428,-3.84 -1.28,-4.811c-0.856,-0.971 -2.157,-1.456 -3.907,-1.456c-0.47,0 -0.973,0.042 -1.506,0.126c-0.533,0.085 -0.863,0.169 -0.991,0.253l0,23.673c-1.113,0.212 -2.114,0.35 -3.012,0.412c-0.897,0.064 -1.688,0.096 -2.369,0.096c-0.727,0 -1.536,-0.032 -2.435,-0.096c-0.895,-0.062 -1.899,-0.2 -3.009,-0.412l0,-31.078c1.495,-0.506 3.307,-1.002 5.444,-1.489c2.134,-0.484 4.803,-0.726 8.006,-0.726Z" style="fill:#084361;fill-rule:nonzero;"/>
    </g>
    <g transform="matrix(2.52392,0,0,2.52392,116.707,-45.9621)">
        <path d="M113.099,113.312l-36.092,-35.67l-44.858,44.335l77.319,0c4.575,0 6.866,-5.467 3.631,-8.665Z" style="fill:#084361;fill-rule:nonzero;"/>
    </g>
    <g transform="matrix(2.52392,0,0,2.52392,116.707,-45.9621)">
        <path d="M32.149,33.307l25.93,14.874c2.221,1.275 3.149,3.975 2.171,6.323l-28.101,67.473l0,-88.67Z" style="fill:#d7df22;fill-rule:nonzero;"/>
    </g>
    <g transform="matrix(2.52392,0,0,2.52392,116.707,-45.9621)">
        <path d="M109.468,33.307l-77.319,0l25.93,14.874c2.221,1.275 3.149,3.975 2.171,6.323l-28.101,67.473l80.95,-80.005c3.235,-3.197 0.944,-8.665 -3.631,-8.665Z" style="fill:#7fc349;fill-rule:nonzero;"/>
    </g>
</svg>
