<?xml version="1.0" encoding="UTF-8" standalone="no"?>
<!DOCTYPE svg PUBLIC "-//W3C//DTD SVG 1.1//EN" "http://www.w3.org/Graphics/SVG/1.1/DTD/svg11.dtd">
<svg width="100%" height="100%" viewBox="0 0 2112 1721" version="1.1" xmlns="http://www.w3.org/2000/svg" xmlns:xlink="http://www.w3.org/1999/xlink" xml:space="preserve" xmlns:serif="http://www.serif.com/" style="fill-rule:evenodd;clip-rule:evenodd;stroke-linejoin:round;stroke-miterlimit:1.41421;">
    <g transform="matrix(1,0,0,1,-500.396,-299.595)">
        <g transform="matrix(0.638921,0,0,0.638921,1036.74,-75.9864)">
            <g transform="matrix(25.8393,0,0,12.988,1254.29,795.443)">
                <g transform="matrix(1,0,0,1,-16,-15.9845)">
                    <clipPath id="_clip1">
                        <rect x="0" y="0" width="32" height="31.969"/>
                    </clipPath>
                    <g clip-path="url(#_clip1)">
                        <path d="M29.396,1.074C26.98,-1.227 2.938,0.516 0.983,3.029C-0.972,5.542 0.292,29.374 2.133,30.754C3.973,32.135 29.053,32.596 31.008,30.754C32.962,28.913 31.812,3.375 29.396,1.074Z" style="fill-rule:nonzero;"/>
                    </g>
                </g>
            </g>
            <g transform="matrix(2.56776,0,0,2.56776,-1661.37,-1259.76)">
                <text x="1053.2px" y="819.14px" style="font-family:'OpenSans-Extrabold', 'Open Sans', sans-serif;font-weight:800;font-size:50px;fill:white;">Install</text>
            </g>
        </g>
        <g transform="matrix(0.638921,0,0,0.638921,-53.1247,1379.03)">
            <g transform="matrix(25.8393,0,0,12.988,1279.76,795.443)">
                <g transform="matrix(1,0,0,1,-16,-15.9845)">
                    <clipPath id="_clip2">
                        <rect x="0" y="0" width="32" height="31.969"/>
                    </clipPath>
                    <g clip-path="url(#_clip2)">
                        <path d="M29.396,1.074C26.98,-1.227 2.938,0.516 0.983,3.029C-0.972,5.542 0.292,29.374 2.133,30.754C3.973,32.135 29.053,32.596 31.008,30.754C32.962,28.913 31.812,3.375 29.396,1.074Z" style="fill-rule:nonzero;"/>
                    </g>
                </g>
            </g>
            <g transform="matrix(2.56776,0,0,2.56776,-1764.03,-1258.73)">
                <text x="1053.2px" y="819.14px" style="font-family:'OpenSans-Extrabold', 'Open Sans', sans-serif;font-weight:800;font-size:50px;fill:white;">T<tspan x="1079.25px 1110.16px " y="819.14px 819.14px ">er</tspan>minate</text>
            </g>
        </g>
        <g transform="matrix(0.638921,0,0,0.638921,519.837,921.947)">
            <g transform="matrix(25.8393,0,0,12.988,1254.29,795.443)">
                <g transform="matrix(1,0,0,1,-16,-15.9845)">
                    <clipPath id="_clip3">
                        <rect x="0" y="0" width="32" height="31.969"/>
                    </clipPath>
                    <g clip-path="url(#_clip3)">
                        <path d="M29.396,1.074C26.98,-1.227 2.938,0.516 0.983,3.029C-0.972,5.542 0.292,29.374 2.133,30.754C3.973,32.135 29.053,32.596 31.008,30.754C32.962,28.913 31.812,3.375 29.396,1.074Z" style="fill-rule:nonzero;"/>
                    </g>
                </g>
            </g>
            <g transform="matrix(2.56776,0,0,2.56776,-1576.39,-1259.76)">
                <text x="1053.2px" y="819.14px" style="font-family:'OpenSans-Extrabold', 'Open Sans', sans-serif;font-weight:800;font-size:50px;fill:white;">Idle</text>
            </g>
        </g>
        <g transform="matrix(0.638921,0,0,0.638921,1142.71,1379.03)">
            <g transform="matrix(25.8393,0,0,12.988,1254.29,795.443)">
                <g transform="matrix(1,0,0,1,-16,-15.9845)">
                    <clipPath id="_clip4">
                        <rect x="0" y="0" width="32" height="31.969"/>
                    </clipPath>
                    <g clip-path="url(#_clip4)">
                        <path d="M29.396,1.074C26.98,-1.227 2.938,0.516 0.983,3.029C-0.972,5.542 0.292,29.374 2.133,30.754C3.973,32.135 29.053,32.596 31.008,30.754C32.962,28.913 31.812,3.375 29.396,1.074Z" style="fill-rule:nonzero;"/>
                    </g>
                </g>
            </g>
            <g transform="matrix(2.56776,0,0,2.56776,-1632.34,-1259.76)">
                <text x="1053.2px" y="819.14px" style="font-family:'OpenSans-Extrabold', 'Open Sans', sans-serif;font-weight:800;font-size:50px;fill:white;">Fetch</text>
            </g>
        </g>
        <g transform="matrix(0.638921,0,0,0.638921,519.837,374.405)">
            <g transform="matrix(25.8393,0,0,12.988,1254.29,795.443)">
                <g transform="matrix(1,0,0,1,-16,-15.9845)">
                    <clipPath id="_clip5">
                        <rect x="0" y="0" width="32" height="31.969"/>
                    </clipPath>
                    <g clip-path="url(#_clip5)">
                        <path d="M29.396,1.074C26.98,-1.227 2.938,0.516 0.983,3.029C-0.972,5.542 0.292,29.374 2.133,30.754C3.973,32.135 29.053,32.596 31.008,30.754C32.962,28.913 31.812,3.375 29.396,1.074Z" style="fill-rule:nonzero;"/>
                    </g>
                </g>
            </g>
            <g transform="matrix(2.56776,0,0,2.56776,-1727.41,-1258.73)">
                <text x="1053.2px" y="819.14px" style="font-family:'OpenSans-Extrabold', 'Open Sans', sans-serif;font-weight:800;font-size:50px;fill:white;">Activate</text>
            </g>
        </g>
        <g transform="matrix(-1.11506,-4.46347,4.46347,-1.11506,1574.78,749.96)">
            <path d="M28.88,28.139C29.005,27.415 17.528,17.563 17.528,17.563C17.528,17.563 24.107,13.144 24.212,12.257C24.317,11.372 0.773,-0.505 0.044,0.017C-0.685,0.538 7.857,24.394 8.795,24.497C9.733,24.601 15.127,19.473 15.127,19.473C15.127,19.473 23.773,31.643 24.566,31.977C25.359,32.312 28.757,28.861 28.88,28.139Z" style="fill-rule:nonzero;"/>
        </g>
        <g transform="matrix(-1.11506,-4.46347,4.46347,-1.11506,975.676,1742.21)">
            <path d="M28.88,28.139C29.005,27.415 17.528,17.563 17.528,17.563C17.528,17.563 24.107,13.144 24.212,12.257C24.317,11.372 0.773,-0.505 0.044,0.017C-0.685,0.538 7.857,24.394 8.795,24.497C9.733,24.601 15.127,19.473 15.127,19.473C15.127,19.473 23.773,31.643 24.566,31.977C25.359,32.312 28.757,28.861 28.88,28.139Z" style="fill-rule:nonzero;"/>
        </g>
        <g transform="matrix(-3.51414,-2.96931,2.96931,-3.51414,1324.65,1251.79)">
            <path d="M28.88,28.139C29.005,27.415 17.528,17.563 17.528,17.563C17.528,17.563 24.107,13.144 24.212,12.257C24.317,11.372 0.773,-0.505 0.044,0.017C-0.685,0.538 7.857,24.394 8.795,24.497C9.733,24.601 15.127,19.473 15.127,19.473C15.127,19.473 23.773,31.643 24.566,31.977C25.359,32.312 28.757,28.861 28.88,28.139Z" style="fill-rule:nonzero;"/>
        </g>
        <g transform="matrix(1.11506,-4.46347,-4.46347,-1.11506,2093.69,749.96)">
            <path d="M28.88,28.139C29.005,27.415 17.528,17.563 17.528,17.563C17.528,17.563 24.107,13.144 24.212,12.257C24.317,11.372 0.773,-0.505 0.044,0.017C-0.685,0.538 7.857,24.394 8.795,24.497C9.733,24.601 15.127,19.473 15.127,19.473C15.127,19.473 23.773,31.643 24.566,31.977C25.359,32.312 28.757,28.861 28.88,28.139Z" style="fill-rule:nonzero;"/>
        </g>
        <g transform="matrix(1.11506,-4.46347,-4.46347,-1.11506,1693.74,1742.21)">
            <path d="M28.88,28.139C29.005,27.415 17.528,17.563 17.528,17.563C17.528,17.563 24.107,13.144 24.212,12.257C24.317,11.372 0.773,-0.505 0.044,0.017C-0.685,0.538 7.857,24.394 8.795,24.497C9.733,24.601 15.127,19.473 15.127,19.473C15.127,19.473 23.773,31.643 24.566,31.977C25.359,32.312 28.757,28.861 28.88,28.139Z" style="fill-rule:nonzero;"/>
        </g>
        <g transform="matrix(-0.911065,4.50954,4.50954,0.911065,1669.33,1539.36)">
            <path d="M28.88,28.139C29.005,27.415 17.528,17.563 17.528,17.563C17.528,17.563 24.107,13.144 24.212,12.257C24.317,11.372 0.773,-0.505 0.044,0.017C-0.685,0.538 7.857,24.394 8.795,24.497C9.733,24.601 15.127,19.473 15.127,19.473C15.127,19.473 23.773,31.643 24.566,31.977C25.359,32.312 28.757,28.861 28.88,28.139Z" style="fill-rule:nonzero;"/>
        </g>
        <g transform="matrix(0.911065,4.50954,-4.50954,0.911065,999.867,1544.47)">
            <path d="M28.88,28.139C29.005,27.415 17.528,17.563 17.528,17.563C17.528,17.563 24.107,13.144 24.212,12.257C24.317,11.372 0.773,-0.505 0.044,0.017C-0.685,0.538 7.857,24.394 8.795,24.497C9.733,24.601 15.127,19.473 15.127,19.473C15.127,19.473 23.773,31.643 24.566,31.977C25.359,32.312 28.757,28.861 28.88,28.139Z" style="fill-rule:nonzero;"/>
        </g>
        <g transform="matrix(0.638921,0,0,0.638921,1546.66,374.405)">
            <g transform="matrix(25.8393,0,0,12.988,1254.29,795.443)">
                <g transform="matrix(1,0,0,1,-16,-15.9845)">
                    <clipPath id="_clip6">
                        <rect x="0" y="0" width="32" height="31.969"/>
                    </clipPath>
                    <g clip-path="url(#_clip6)">
                        <path d="M29.396,1.074C26.98,-1.227 2.938,0.516 0.983,3.029C-0.972,5.542 0.292,29.374 2.133,30.754C3.973,32.135 29.053,32.596 31.008,30.754C32.962,28.913 31.812,3.375 29.396,1.074Z" style="fill-rule:nonzero;"/>
                    </g>
                </g>
            </g>
            <g transform="matrix(2.56776,0,0,2.56776,-1619.52,-1262.71)">
                <text x="1053.2px" y="819.14px" style="font-family:'OpenSans-Extrabold', 'Open Sans', sans-serif;font-weight:800;font-size:50px;fill:white;">Err<tspan x="1126.57px 1158.43px " y="819.14px 819.14px ">or</tspan></text>
            </g>
        </g>
    </g>
</svg>
